<?xml version="1.0" encoding="utf-8"?>
<!-- Generator: Adobe Illustrator 18.1.1, SVG Export Plug-In . SVG Version: 6.00 Build 0)  -->
<svg version="1.1" id="Layer_1" xmlns="http://www.w3.org/2000/svg" xmlns:xlink="http://www.w3.org/1999/xlink" x="0px" y="0px"
	 width="22px" height="22px" viewBox="0 0 22 22" enable-background="new 0 0 22 22" xml:space="preserve">
<g>
	
		<rect x="12.2" y="13.7" transform="matrix(-0.7071 -0.7071 0.7071 -0.7071 14.4667 34.9259)" fill="#3E6480" width="4.4" height="1.5"/>
	<path fill="#3E6480" d="M10,5.4c2.5,0,4.6,2,4.6,4.6c0,2.5-2,4.6-4.6,4.6S5.4,12.5,5.4,10C5.4,7.5,7.5,5.4,10,5.4z M10,6.6
		c-1.9,0-3.5,1.5-3.5,3.5c0,1.9,1.5,3.5,3.5,3.5c1.9,0,3.5-1.5,3.5-3.5C13.5,8.1,11.9,6.6,10,6.6z"/>
</g>
</svg>
